<mxfile host="app.diagrams.net" modified="2023-11-02T01:33:28.933Z" agent="Mozilla/5.0 (Windows NT 10.0; Win64; x64) AppleWebKit/537.36 (KHTML, like Gecko) Chrome/118.0.0.0 Safari/537.36" etag="ux5SizHrTp1_S04DS5YQ" version="22.0.8" type="github">
  <diagram id="C5RBs43oDa-KdzZeNtuy" name="Page-1">
    <mxGraphModel dx="880" dy="478" grid="1" gridSize="10" guides="1" tooltips="1" connect="1" arrows="1" fold="1" page="1" pageScale="1" pageWidth="1169" pageHeight="1654" math="0" shadow="0">
      <root>
        <mxCell id="WIyWlLk6GJQsqaUBKTNV-0" />
        <mxCell id="WIyWlLk6GJQsqaUBKTNV-1" parent="WIyWlLk6GJQsqaUBKTNV-0" />
        <mxCell id="rwVPdZpXGrzp7XrNuxJ1-8" value="" style="edgeStyle=orthogonalEdgeStyle;rounded=0;orthogonalLoop=1;jettySize=auto;html=1;" edge="1" parent="WIyWlLk6GJQsqaUBKTNV-1" source="rwVPdZpXGrzp7XrNuxJ1-6" target="rwVPdZpXGrzp7XrNuxJ1-7">
          <mxGeometry relative="1" as="geometry" />
        </mxCell>
        <mxCell id="rwVPdZpXGrzp7XrNuxJ1-6" value="&lt;font style=&quot;font-size: 18px;&quot;&gt;Mulai&lt;/font&gt;" style="strokeWidth=2;html=1;shape=mxgraph.flowchart.terminator;whiteSpace=wrap;" vertex="1" parent="WIyWlLk6GJQsqaUBKTNV-1">
          <mxGeometry x="190" y="60" width="150" height="80" as="geometry" />
        </mxCell>
        <mxCell id="rwVPdZpXGrzp7XrNuxJ1-10" value="" style="edgeStyle=orthogonalEdgeStyle;rounded=0;orthogonalLoop=1;jettySize=auto;html=1;" edge="1" parent="WIyWlLk6GJQsqaUBKTNV-1" source="rwVPdZpXGrzp7XrNuxJ1-7" target="rwVPdZpXGrzp7XrNuxJ1-9">
          <mxGeometry relative="1" as="geometry" />
        </mxCell>
        <mxCell id="rwVPdZpXGrzp7XrNuxJ1-7" value="&lt;font style=&quot;font-size: 14px;&quot;&gt;Inisialisasi objek&lt;br&gt;ular &amp;amp; makanan&lt;/font&gt;" style="whiteSpace=wrap;html=1;strokeWidth=2;" vertex="1" parent="WIyWlLk6GJQsqaUBKTNV-1">
          <mxGeometry x="192.5" y="197" width="145" height="100" as="geometry" />
        </mxCell>
        <mxCell id="rwVPdZpXGrzp7XrNuxJ1-12" value="" style="edgeStyle=orthogonalEdgeStyle;rounded=0;orthogonalLoop=1;jettySize=auto;html=1;" edge="1" parent="WIyWlLk6GJQsqaUBKTNV-1" source="rwVPdZpXGrzp7XrNuxJ1-9" target="rwVPdZpXGrzp7XrNuxJ1-11">
          <mxGeometry relative="1" as="geometry" />
        </mxCell>
        <mxCell id="rwVPdZpXGrzp7XrNuxJ1-21" value="" style="edgeStyle=orthogonalEdgeStyle;rounded=0;orthogonalLoop=1;jettySize=auto;html=1;" edge="1" parent="WIyWlLk6GJQsqaUBKTNV-1" source="rwVPdZpXGrzp7XrNuxJ1-9" target="rwVPdZpXGrzp7XrNuxJ1-11">
          <mxGeometry relative="1" as="geometry" />
        </mxCell>
        <mxCell id="rwVPdZpXGrzp7XrNuxJ1-9" value="INPUT" style="shape=parallelogram;perimeter=parallelogramPerimeter;whiteSpace=wrap;html=1;fixedSize=1;strokeWidth=2;" vertex="1" parent="WIyWlLk6GJQsqaUBKTNV-1">
          <mxGeometry x="182.5" y="344" width="165" height="63" as="geometry" />
        </mxCell>
        <mxCell id="rwVPdZpXGrzp7XrNuxJ1-14" value="" style="edgeStyle=orthogonalEdgeStyle;rounded=0;orthogonalLoop=1;jettySize=auto;html=1;" edge="1" parent="WIyWlLk6GJQsqaUBKTNV-1" source="rwVPdZpXGrzp7XrNuxJ1-11" target="rwVPdZpXGrzp7XrNuxJ1-13">
          <mxGeometry relative="1" as="geometry" />
        </mxCell>
        <mxCell id="rwVPdZpXGrzp7XrNuxJ1-18" value="" style="edgeStyle=orthogonalEdgeStyle;rounded=0;orthogonalLoop=1;jettySize=auto;html=1;" edge="1" parent="WIyWlLk6GJQsqaUBKTNV-1" source="rwVPdZpXGrzp7XrNuxJ1-11" target="rwVPdZpXGrzp7XrNuxJ1-17">
          <mxGeometry relative="1" as="geometry" />
        </mxCell>
        <mxCell id="rwVPdZpXGrzp7XrNuxJ1-11" value="KIRI" style="rhombus;whiteSpace=wrap;html=1;strokeWidth=2;" vertex="1" parent="WIyWlLk6GJQsqaUBKTNV-1">
          <mxGeometry x="225" y="444.5" width="80" height="80" as="geometry" />
        </mxCell>
        <mxCell id="rwVPdZpXGrzp7XrNuxJ1-13" value="Belok Ke Kiri" style="whiteSpace=wrap;html=1;strokeWidth=2;" vertex="1" parent="WIyWlLk6GJQsqaUBKTNV-1">
          <mxGeometry x="365" y="454.5" width="120" height="60" as="geometry" />
        </mxCell>
        <mxCell id="rwVPdZpXGrzp7XrNuxJ1-20" value="" style="edgeStyle=orthogonalEdgeStyle;rounded=0;orthogonalLoop=1;jettySize=auto;html=1;" edge="1" parent="WIyWlLk6GJQsqaUBKTNV-1" source="rwVPdZpXGrzp7XrNuxJ1-17" target="rwVPdZpXGrzp7XrNuxJ1-19">
          <mxGeometry relative="1" as="geometry" />
        </mxCell>
        <mxCell id="rwVPdZpXGrzp7XrNuxJ1-23" value="" style="edgeStyle=orthogonalEdgeStyle;rounded=0;orthogonalLoop=1;jettySize=auto;html=1;" edge="1" parent="WIyWlLk6GJQsqaUBKTNV-1" source="rwVPdZpXGrzp7XrNuxJ1-17" target="rwVPdZpXGrzp7XrNuxJ1-22">
          <mxGeometry relative="1" as="geometry" />
        </mxCell>
        <mxCell id="rwVPdZpXGrzp7XrNuxJ1-17" value="KANAN" style="rhombus;whiteSpace=wrap;html=1;strokeWidth=2;" vertex="1" parent="WIyWlLk6GJQsqaUBKTNV-1">
          <mxGeometry x="225" y="570.5" width="80" height="80" as="geometry" />
        </mxCell>
        <mxCell id="rwVPdZpXGrzp7XrNuxJ1-19" value="Belok Ke Kanan" style="whiteSpace=wrap;html=1;strokeWidth=2;" vertex="1" parent="WIyWlLk6GJQsqaUBKTNV-1">
          <mxGeometry x="365" y="580.5" width="120" height="60" as="geometry" />
        </mxCell>
        <mxCell id="rwVPdZpXGrzp7XrNuxJ1-25" value="" style="edgeStyle=orthogonalEdgeStyle;rounded=0;orthogonalLoop=1;jettySize=auto;html=1;" edge="1" parent="WIyWlLk6GJQsqaUBKTNV-1" source="rwVPdZpXGrzp7XrNuxJ1-22" target="rwVPdZpXGrzp7XrNuxJ1-24">
          <mxGeometry relative="1" as="geometry" />
        </mxCell>
        <mxCell id="rwVPdZpXGrzp7XrNuxJ1-27" value="" style="edgeStyle=orthogonalEdgeStyle;rounded=0;orthogonalLoop=1;jettySize=auto;html=1;" edge="1" parent="WIyWlLk6GJQsqaUBKTNV-1" source="rwVPdZpXGrzp7XrNuxJ1-22" target="rwVPdZpXGrzp7XrNuxJ1-26">
          <mxGeometry relative="1" as="geometry" />
        </mxCell>
        <mxCell id="rwVPdZpXGrzp7XrNuxJ1-22" value="ATAS" style="rhombus;whiteSpace=wrap;html=1;strokeWidth=2;" vertex="1" parent="WIyWlLk6GJQsqaUBKTNV-1">
          <mxGeometry x="225" y="680.5" width="80" height="80" as="geometry" />
        </mxCell>
        <mxCell id="rwVPdZpXGrzp7XrNuxJ1-29" value="" style="edgeStyle=orthogonalEdgeStyle;rounded=0;orthogonalLoop=1;jettySize=auto;html=1;" edge="1" parent="WIyWlLk6GJQsqaUBKTNV-1" source="rwVPdZpXGrzp7XrNuxJ1-24" target="rwVPdZpXGrzp7XrNuxJ1-28">
          <mxGeometry relative="1" as="geometry" />
        </mxCell>
        <mxCell id="rwVPdZpXGrzp7XrNuxJ1-31" value="" style="edgeStyle=orthogonalEdgeStyle;rounded=0;orthogonalLoop=1;jettySize=auto;html=1;" edge="1" parent="WIyWlLk6GJQsqaUBKTNV-1" source="rwVPdZpXGrzp7XrNuxJ1-24" target="rwVPdZpXGrzp7XrNuxJ1-30">
          <mxGeometry relative="1" as="geometry" />
        </mxCell>
        <mxCell id="rwVPdZpXGrzp7XrNuxJ1-24" value="BAWAH" style="rhombus;whiteSpace=wrap;html=1;strokeWidth=2;" vertex="1" parent="WIyWlLk6GJQsqaUBKTNV-1">
          <mxGeometry x="225" y="796.5" width="80" height="80" as="geometry" />
        </mxCell>
        <mxCell id="rwVPdZpXGrzp7XrNuxJ1-26" value="Gerak Ke Atas" style="whiteSpace=wrap;html=1;strokeWidth=2;" vertex="1" parent="WIyWlLk6GJQsqaUBKTNV-1">
          <mxGeometry x="365" y="690.5" width="120" height="60" as="geometry" />
        </mxCell>
        <mxCell id="rwVPdZpXGrzp7XrNuxJ1-28" value="Gerak Ke Bawah" style="whiteSpace=wrap;html=1;strokeWidth=2;" vertex="1" parent="WIyWlLk6GJQsqaUBKTNV-1">
          <mxGeometry x="365" y="806.5" width="120" height="60" as="geometry" />
        </mxCell>
        <mxCell id="rwVPdZpXGrzp7XrNuxJ1-33" value="" style="edgeStyle=orthogonalEdgeStyle;rounded=0;orthogonalLoop=1;jettySize=auto;html=1;" edge="1" parent="WIyWlLk6GJQsqaUBKTNV-1" source="rwVPdZpXGrzp7XrNuxJ1-30" target="rwVPdZpXGrzp7XrNuxJ1-32">
          <mxGeometry relative="1" as="geometry" />
        </mxCell>
        <mxCell id="rwVPdZpXGrzp7XrNuxJ1-35" value="" style="edgeStyle=orthogonalEdgeStyle;rounded=0;orthogonalLoop=1;jettySize=auto;html=1;" edge="1" parent="WIyWlLk6GJQsqaUBKTNV-1" source="rwVPdZpXGrzp7XrNuxJ1-30" target="rwVPdZpXGrzp7XrNuxJ1-34">
          <mxGeometry relative="1" as="geometry" />
        </mxCell>
        <mxCell id="rwVPdZpXGrzp7XrNuxJ1-30" value="EAT" style="rhombus;whiteSpace=wrap;html=1;strokeWidth=2;" vertex="1" parent="WIyWlLk6GJQsqaUBKTNV-1">
          <mxGeometry x="225" y="911.5" width="80" height="80" as="geometry" />
        </mxCell>
        <mxCell id="rwVPdZpXGrzp7XrNuxJ1-32" value="Menambah panjang&lt;br&gt;badan ular" style="whiteSpace=wrap;html=1;strokeWidth=2;" vertex="1" parent="WIyWlLk6GJQsqaUBKTNV-1">
          <mxGeometry x="365" y="921.5" width="120" height="60" as="geometry" />
        </mxCell>
        <mxCell id="rwVPdZpXGrzp7XrNuxJ1-37" value="" style="edgeStyle=orthogonalEdgeStyle;rounded=0;orthogonalLoop=1;jettySize=auto;html=1;" edge="1" parent="WIyWlLk6GJQsqaUBKTNV-1" source="rwVPdZpXGrzp7XrNuxJ1-34" target="rwVPdZpXGrzp7XrNuxJ1-36">
          <mxGeometry relative="1" as="geometry" />
        </mxCell>
        <mxCell id="rwVPdZpXGrzp7XrNuxJ1-46" value="" style="edgeStyle=orthogonalEdgeStyle;rounded=0;orthogonalLoop=1;jettySize=auto;html=1;" edge="1" parent="WIyWlLk6GJQsqaUBKTNV-1" source="rwVPdZpXGrzp7XrNuxJ1-34" target="rwVPdZpXGrzp7XrNuxJ1-45">
          <mxGeometry relative="1" as="geometry" />
        </mxCell>
        <mxCell id="rwVPdZpXGrzp7XrNuxJ1-34" value="HIT&lt;br&gt;SELF" style="rhombus;whiteSpace=wrap;html=1;strokeWidth=2;" vertex="1" parent="WIyWlLk6GJQsqaUBKTNV-1">
          <mxGeometry x="225" y="1028.5" width="80" height="80" as="geometry" />
        </mxCell>
        <mxCell id="rwVPdZpXGrzp7XrNuxJ1-36" value="Game Over" style="whiteSpace=wrap;html=1;strokeWidth=2;" vertex="1" parent="WIyWlLk6GJQsqaUBKTNV-1">
          <mxGeometry x="365" y="1038.5" width="120" height="60" as="geometry" />
        </mxCell>
        <mxCell id="rwVPdZpXGrzp7XrNuxJ1-39" value="" style="strokeWidth=2;html=1;shape=mxgraph.flowchart.annotation_1;align=left;pointerEvents=1;rotation=-180;" vertex="1" parent="WIyWlLk6GJQsqaUBKTNV-1">
          <mxGeometry x="485" y="821.5" width="100" height="363" as="geometry" />
        </mxCell>
        <mxCell id="rwVPdZpXGrzp7XrNuxJ1-40" value="" style="endArrow=none;html=1;rounded=0;exitX=1;exitY=0.635;exitDx=0;exitDy=0;exitPerimeter=0;strokeWidth=2;" edge="1" parent="WIyWlLk6GJQsqaUBKTNV-1">
          <mxGeometry width="50" height="50" relative="1" as="geometry">
            <mxPoint x="489" y="953.9949999999999" as="sourcePoint" />
            <mxPoint x="584" y="954" as="targetPoint" />
          </mxGeometry>
        </mxCell>
        <mxCell id="rwVPdZpXGrzp7XrNuxJ1-42" value="" style="endArrow=none;html=1;rounded=0;exitX=1;exitY=0.635;exitDx=0;exitDy=0;exitPerimeter=0;strokeWidth=2;" edge="1" parent="WIyWlLk6GJQsqaUBKTNV-1">
          <mxGeometry width="50" height="50" relative="1" as="geometry">
            <mxPoint x="491" y="1071.995" as="sourcePoint" />
            <mxPoint x="586" y="1072" as="targetPoint" />
          </mxGeometry>
        </mxCell>
        <mxCell id="rwVPdZpXGrzp7XrNuxJ1-43" value="" style="endArrow=classic;html=1;rounded=0;exitX=0.79;exitY=-0.007;exitDx=0;exitDy=0;exitPerimeter=0;strokeWidth=2;" edge="1" parent="WIyWlLk6GJQsqaUBKTNV-1">
          <mxGeometry width="50" height="50" relative="1" as="geometry">
            <mxPoint x="506" y="1185.041" as="sourcePoint" />
            <mxPoint x="340" y="1185" as="targetPoint" />
          </mxGeometry>
        </mxCell>
        <mxCell id="rwVPdZpXGrzp7XrNuxJ1-45" value="OUTPUT&lt;br&gt;SCORE" style="shape=parallelogram;perimeter=parallelogramPerimeter;whiteSpace=wrap;html=1;fixedSize=1;strokeWidth=2;" vertex="1" parent="WIyWlLk6GJQsqaUBKTNV-1">
          <mxGeometry x="205" y="1156.5" width="120" height="60" as="geometry" />
        </mxCell>
        <mxCell id="rwVPdZpXGrzp7XrNuxJ1-49" value="SELESAI" style="strokeWidth=2;html=1;shape=mxgraph.flowchart.terminator;whiteSpace=wrap;" vertex="1" parent="WIyWlLk6GJQsqaUBKTNV-1">
          <mxGeometry x="215" y="1266" width="100" height="60" as="geometry" />
        </mxCell>
        <mxCell id="rwVPdZpXGrzp7XrNuxJ1-50" value="" style="edgeStyle=orthogonalEdgeStyle;rounded=0;orthogonalLoop=1;jettySize=auto;html=1;" edge="1" parent="WIyWlLk6GJQsqaUBKTNV-1">
          <mxGeometry relative="1" as="geometry">
            <mxPoint x="266" y="1215" as="sourcePoint" />
            <mxPoint x="266" y="1263" as="targetPoint" />
          </mxGeometry>
        </mxCell>
      </root>
    </mxGraphModel>
  </diagram>
</mxfile>
